<?xml version="1.0" standalone="no"?>
<!DOCTYPE svg PUBLIC "-//W3C//DTD SVG 20010904//EN"
 "http://www.w3.org/TR/2001/REC-SVG-20010904/DTD/svg10.dtd">
<svg version="1.0" xmlns="http://www.w3.org/2000/svg"
 width="366.000000pt" height="219.000000pt" viewBox="0 0 366.000000 219.000000"
 preserveAspectRatio="xMidYMid meet">

<g transform="translate(0.000000,219.000000) scale(0.100000,-0.100000)"
fill="#000000" stroke="none">
<path d="M2227 1948 c-3 -18 -9 -63 -13 -100 -5 -58 -4 -68 10 -68 9 0 18 12
22 28 3 15 7 31 7 35 1 4 20 -6 43 -22 49 -36 118 -41 143 -9 9 10 32 21 52
24 31 5 38 3 43 -14 9 -27 33 -45 51 -39 12 5 9 16 -15 62 -16 31 -35 74 -41
96 -8 24 -18 39 -26 37 -7 -2 -35 -39 -61 -83 -54 -89 -62 -92 -121 -48 l-33
26 36 33 c20 18 36 37 36 43 0 26 -26 20 -62 -15 l-40 -39 4 40 c2 30 -1 40
-13 43 -12 2 -18 -6 -22 -30z m278 -78 c-3 -6 -13 -10 -20 -10 -12 0 -12 5 -3
25 10 22 13 23 20 10 5 -8 6 -20 3 -25z"/>
<path d="M2659 1973 c-24 -4 -27 -9 -33 -65 -10 -102 -8 -118 13 -118 15 0 20
8 23 36 l3 36 47 -36 c26 -20 54 -36 62 -36 26 0 18 25 -15 49 l-31 23 26 27
c32 33 33 55 4 75 -22 15 -44 17 -99 9z m65 -29 c9 -3 16 -11 16 -16 0 -16
-32 -37 -57 -38 -17 0 -20 4 -15 23 8 33 26 43 56 31z"/>
<path d="M2865 1961 c-30 -13 -47 -37 -43 -63 2 -17 14 -27 46 -38 23 -8 42
-18 42 -22 0 -15 -43 -30 -71 -24 -25 5 -29 2 -29 -16 0 -19 4 -20 50 -16 94
9 120 69 43 98 -56 21 -59 26 -28 46 22 14 29 15 50 4 29 -16 44 -6 29 18 -12
19 -58 26 -89 13z"/>
<path d="M3390 1856 c0 -40 -42 -89 -100 -118 -100 -50 -169 -59 -484 -65
-301 -6 -572 10 -711 42 -33 8 -125 16 -205 20 -80 3 -234 13 -342 21 -289 23
-729 16 -853 -14 -49 -12 -112 -27 -139 -33 -202 -47 -368 -200 -487 -449 -62
-129 -71 -184 -67 -390 4 -168 6 -192 30 -260 29 -82 90 -190 147 -259 20 -24
44 -53 53 -65 l17 -21 28 21 c48 36 115 66 175 80 86 20 328 37 456 31 100 -4
116 -7 137 -27 l25 -23 0 31 c0 56 32 67 185 66 103 0 143 -5 193 -21 l62 -21
0 45 c0 36 6 50 30 74 19 20 38 29 52 27 24 -3 26 -12 13 -80 -12 -58 0 -86
40 -97 49 -13 97 3 134 44 72 82 47 151 -91 247 -63 44 -98 96 -98 145 0 43
85 140 158 181 15 9 54 13 110 11 76 -1 92 -5 125 -28 35 -24 38 -29 33 -66
-5 -43 -42 -85 -75 -85 -13 0 -16 7 -13 34 7 64 -38 104 -105 91 -27 -5 -34
-12 -44 -45 -16 -52 -4 -69 85 -123 38 -23 83 -59 99 -79 81 -101 21 -252
-133 -334 l-35 -19 70 -6 c128 -12 282 -9 407 7 414 52 682 154 749 286 26 52
20 87 -26 152 -61 86 -39 176 43 176 75 0 111 -82 73 -169 -27 -63 -27 -101 0
-135 30 -38 71 -56 126 -56 88 1 173 54 273 173 48 56 63 84 88 160 44 133 56
224 49 379 -7 185 -44 311 -128 435 -35 52 -108 133 -121 133 -4 0 -8 -11 -8
-24z m-344 -295 c9 -16 8 -38 -2 -84 -23 -112 -45 -287 -39 -307 4 -13 -1 -24
-20 -36 -34 -22 -54 -12 -97 47 -18 26 -56 79 -85 119 -28 39 -54 77 -56 83
-10 27 -17 -6 -28 -124 -6 -68 -14 -131 -19 -139 -4 -8 -20 -15 -36 -15 -26 0
-29 3 -32 38 -2 21 4 71 12 112 8 40 21 121 28 179 11 98 14 107 35 112 36 9
47 0 66 -55 17 -49 122 -216 150 -240 12 -9 17 8 31 111 9 68 16 142 16 166 0
35 4 44 23 52 29 12 40 8 53 -19z m-655 -48 c19 -93 111 -284 183 -379 14 -17
-11 -44 -39 -44 -27 0 -66 43 -101 112 -18 36 -29 48 -42 44 -9 -2 -51 -12
-93 -22 l-75 -18 -30 -56 c-32 -59 -68 -76 -93 -46 -12 14 -15 14 -28 0 -25
-24 -69 -8 -180 67 -56 38 -107 69 -112 69 -13 0 -21 -27 -21 -75 0 -64 -14
-95 -44 -95 -14 0 -27 4 -30 9 -4 5 1 101 10 213 15 203 26 248 58 248 33 0
39 -27 27 -121 -7 -51 -9 -94 -7 -97 8 -7 124 116 153 161 30 48 49 55 75 30
18 -19 19 -23 5 -49 -8 -16 -49 -61 -89 -101 l-75 -72 76 -54 c93 -67 113 -77
145 -77 18 0 26 -5 26 -17 0 -21 95 139 162 272 60 120 74 137 107 133 19 -2
27 -10 32 -35z m-866 -7 c36 -15 65 -59 65 -98 0 -35 -35 -85 -85 -120 -24
-17 -42 -34 -40 -38 3 -4 43 -33 90 -64 70 -46 86 -62 83 -79 -2 -16 -11 -23
-34 -25 -25 -2 -50 11 -140 77 -59 45 -116 81 -126 81 -10 0 -19 6 -20 13 -1
6 -4 -33 -7 -88 l-6 -100 -29 -3 c-16 -2 -32 2 -37 10 -13 20 -11 149 5 262 8
55 13 114 13 131 -2 29 0 30 63 41 92 16 165 16 205 0z m1985 -16 c11 -11 20
-27 20 -35 0 -21 -36 -55 -57 -54 -13 0 -11 3 6 10 23 9 23 10 5 23 -14 11
-21 11 -26 3 -5 -7 -8 0 -8 16 0 24 4 28 23 25 13 -2 22 -10 22 -20 0 -10 5
-18 10 -18 9 0 10 5 7 30 -1 5 -11 14 -22 20 -42 22 -82 -34 -48 -68 9 -9 9
-12 0 -12 -7 0 -16 10 -21 23 -22 59 44 102 89 57z m-2360 -5 c9 -11 9 -42 0
-142 -6 -70 -16 -145 -21 -165 -21 -82 -101 -137 -197 -138 -138 0 -194 91
-172 278 18 146 26 172 55 172 38 0 44 -26 28 -115 -8 -44 -13 -111 -11 -149
4 -63 6 -71 37 -98 30 -27 39 -30 77 -24 93 12 112 46 124 227 6 101 12 135
26 150 21 23 37 24 54 4z m-433 -6 c16 -16 4 -49 -21 -54 -11 -2 -58 -6 -104
-8 -45 -2 -87 -8 -92 -13 -6 -6 -13 -38 -16 -72 l-7 -62 28 0 c15 0 54 7 86
15 62 16 99 9 99 -19 0 -25 -27 -36 -116 -52 -49 -8 -92 -18 -96 -22 -4 -4 -8
-43 -10 -87 l-3 -80 -35 0 c-34 0 -35 1 -38 45 -2 25 2 106 9 180 7 74 13 153
13 175 l1 40 75 7 c41 5 79 10 85 12 22 9 132 5 142 -5z m1708 -544 c29 -28
31 -45 10 -85 -26 -50 -98 -54 -124 -8 -14 24 -14 30 2 63 27 56 74 69 112 30z
m-167 -12 c49 -42 12 -133 -54 -133 -65 0 -85 70 -35 121 34 33 60 37 89 12z
m520 -16 c6 -5 12 -27 12 -49 l0 -40 40 7 c55 9 52 -10 -4 -35 l-44 -18 -12
-84 c-21 -142 1 -164 60 -59 37 65 60 87 60 57 0 -26 -47 -111 -82 -152 -74
-84 -181 -85 -218 -2 l-17 37 -31 -45 c-33 -46 -95 -83 -140 -84 -34 0 -76 25
-91 54 l-14 26 -24 -32 c-67 -91 -184 -95 -231 -7 -21 38 -9 138 23 197 29 54
57 72 110 72 63 0 75 -33 55 -155 -15 -90 2 -122 37 -69 9 14 20 53 25 86 15
109 62 168 134 168 53 0 68 -27 60 -112 -4 -40 -9 -82 -12 -93 -2 -11 0 -27 5
-35 8 -12 13 -11 31 5 49 44 88 186 54 199 -21 8 -17 47 6 53 11 3 28 24 39
48 20 45 44 64 96 75 31 7 52 3 73 -13z"/>
<path d="M2305 1368 c-15 -35 -29 -68 -32 -75 -5 -12 0 -11 79 8 l37 9 -21 53
c-12 28 -24 56 -28 60 -4 4 -19 -20 -35 -55z"/>
<path d="M1360 1453 c-23 -9 -28 -22 -35 -87 -4 -34 -9 -70 -11 -81 -5 -18 -4
-18 6 -2 7 11 24 17 47 17 41 0 117 40 133 70 16 30 12 68 -9 80 -21 11 -105
12 -131 3z"/>
<path d="M3008 487 c-32 -26 -35 -43 -12 -75 19 -27 22 -27 58 3 l30 24 -19
35 c-11 20 -22 36 -25 36 -3 -1 -17 -11 -32 -23z m27 -55 c-8 -9 -25 20 -18
31 3 5 10 2 15 -7 6 -10 7 -20 3 -24z"/>
<path d="M2929 428 c-7 -8 -22 -17 -32 -21 -17 -6 -17 -9 3 -46 14 -29 25 -39
36 -34 9 3 13 12 8 22 -3 9 -8 25 -11 36 -4 19 -4 20 11 1 8 -10 17 -23 19
-29 4 -14 27 1 27 18 0 8 -10 26 -23 41 -20 23 -25 25 -38 12z"/>
<path d="M2837 374 c-3 -4 3 -24 13 -45 14 -26 25 -37 35 -33 19 7 19 6 -2 49
-16 33 -32 43 -46 29z"/>
<path d="M2710 366 c0 -3 12 -31 26 -64 21 -48 29 -59 45 -55 15 4 17 9 8 25
-9 17 -8 18 9 7 11 -7 27 -9 38 -5 18 7 18 9 -3 23 -13 9 -23 26 -23 39 0 30
-27 22 -33 -9 -3 -19 -5 -18 -16 11 -8 20 -20 32 -32 32 -10 0 -19 -2 -19 -4z"/>
<path d="M1882 233 c3 -65 6 -78 21 -81 12 -3 17 3 17 22 0 18 6 25 22 28 45
6 35 80 -13 97 -18 6 -36 11 -41 11 -5 0 -8 -35 -6 -77z m50 5 c-9 -9 -12 -7
-12 12 0 19 3 21 12 12 9 -9 9 -15 0 -24z"/>
<path d="M2547 303 c-4 -3 -7 -35 -7 -70 0 -66 13 -81 41 -47 7 8 21 13 32 10
44 -11 47 4 10 60 -33 49 -58 65 -76 47z m46 -76 c-4 -6 -10 -2 -14 9 -12 31
-9 40 6 20 8 -10 11 -24 8 -29z"/>
<path d="M2672 299 c-29 -11 -26 -43 6 -47 24 -4 31 -22 7 -22 -8 0 -15 -4
-15 -10 0 -5 7 -10 15 -10 8 0 15 -4 15 -10 0 -5 5 -10 11 -10 6 0 9 6 6 14
-3 8 0 20 8 26 18 15 8 40 -16 40 -10 0 -19 5 -19 10 0 6 5 10 10 10 6 0 10 5
10 10 0 12 -7 12 -38 -1z"/>
<path d="M2316 281 c-9 -15 23 -36 36 -23 5 5 7 15 4 21 -9 13 -33 14 -40 2z"/>
<path d="M2437 243 c-4 -6 -17 -9 -28 -6 -21 6 -21 4 -14 -43 8 -58 7 -56 29
-48 12 5 16 14 12 30 -4 14 -1 26 8 31 8 5 11 15 6 27 -4 12 -9 16 -13 9z"/>
<path d="M2002 228 c-7 -7 -12 -24 -12 -39 0 -47 49 -76 78 -47 20 20 14 31
-13 24 -14 -4 -25 -2 -25 4 0 5 11 10 25 10 17 0 25 5 25 18 0 24 -19 42 -45
42 -12 0 -26 -5 -33 -12z"/>
<path d="M2100 231 c0 -5 7 -28 15 -52 12 -32 13 -50 6 -72 -10 -26 -8 -28 11
-25 17 2 25 16 40 68 10 36 18 71 18 78 0 23 -28 12 -37 -15 l-10 -28 -6 28
c-7 24 -37 40 -37 18z"/>
<path d="M2215 187 c8 -61 7 -59 29 -51 13 5 15 14 11 35 -4 16 -2 29 3 29 5
0 12 -13 16 -30 8 -41 36 -40 36 1 0 50 -14 67 -61 67 l-41 1 7 -52z"/>
<path d="M2330 221 c0 -48 13 -81 31 -81 15 0 18 5 14 25 -3 14 -7 36 -10 50
-6 29 -35 34 -35 6z"/>
</g>
</svg>
